<svg width="99" height="91" viewBox="0 0 99 91" fill="none" xmlns="http://www.w3.org/2000/svg">
<path d="M49.0748 5.40576C50.0038 6.87784 50.899 8.37448 51.8206 9.85249C53.5055 12.5833 55.2605 15.282 56.6396 18.1949C57.5348 20.0919 58.2321 22.1125 58.4695 24.2152C58.6492 25.6391 58.5932 27.0841 58.3879 28.502L58.5206 28.4444C58.1654 28.7043 57.9552 29.1072 57.6972 29.4568C55.0239 33.1933 52.3647 36.9417 49.6857 40.674C49.4903 39.6243 49.201 38.589 48.7418 37.6265C47.9736 35.969 46.8805 34.5012 45.7669 33.0765C44.4809 31.4487 43.1538 29.8555 41.9033 28.1981C44.2922 20.5998 46.681 13.0024 49.0748 5.40576Z" fill="#169B48"/>
<path d="M58.5204 28.4445C60.7724 27.4473 63.2445 27.0114 65.6902 27.0715C68.7377 27.113 71.7267 27.8088 74.6917 28.4699C77.3608 29.1116 80.0547 29.6356 82.7436 30.1765C76.3206 34.961 69.8794 39.7226 63.4555 44.5071C61.6198 43.8527 59.8302 43.0756 58.0184 42.3586C55.3624 41.3056 52.5293 40.3795 49.6475 40.7283L49.6854 40.6741C52.3644 36.9418 55.0236 33.1935 57.6969 29.457C57.9549 29.1074 58.1651 28.7044 58.5204 28.4445Z" fill="#11743B"/>
<path d="M15.3794 29.4941C21.1331 29.4916 26.8868 29.5136 32.6405 29.5127C35.0409 29.5068 37.4413 29.5432 39.8425 29.5186C40.7221 30.642 41.5926 31.7738 42.496 32.8785C43.5429 34.1821 44.6112 35.473 45.5352 36.874C46.3587 38.137 47.0553 39.5303 47.2877 41.0473C47.4353 41.9217 47.3908 42.8131 47.4435 43.696C47.4542 43.8865 47.3273 44.0346 47.2267 44.1794C43.6286 49.1814 40.0758 54.2173 36.5032 59.238C33.9594 62.8086 31.4247 66.3859 28.8858 69.9599C28.7737 70.1267 28.6665 70.3027 28.5091 70.4297C28.5453 70.1275 28.6681 69.8482 28.7539 69.5595C31.3422 61.4389 33.9322 53.32 36.5173 45.1986C31.0158 41.115 25.5151 37.0306 20.0145 32.9453C18.4714 31.7924 16.9134 30.6597 15.3794 29.4941Z" fill="#215FAC"/>
<path d="M47.4433 43.6961C48.4589 43.4447 49.4794 43.14 50.532 43.1332C52.3776 43.0384 54.1878 43.5505 55.9156 44.1659C58.3201 45.0455 60.6554 46.1163 63.0739 46.9586C65.5823 54.8667 68.1138 62.768 70.6263 70.6753C69.3041 69.7374 68.0248 68.7334 66.7174 67.7726C60.9851 63.4732 55.2388 59.1924 49.5123 54.8853C42.4768 60.1532 35.4405 65.4193 28.4033 70.6846C28.4248 70.5805 28.447 70.4764 28.4676 70.374L28.5088 70.4298C28.6663 70.3028 28.7734 70.1268 28.8855 69.96C31.4244 66.386 33.9592 62.8087 36.503 59.2381C40.0756 54.2174 43.6284 49.1815 47.2265 44.1795C47.3271 44.0347 47.454 43.8866 47.4433 43.6961Z" fill="#184999"/>
<path d="M2.47607 74.5598C3.4331 74.2652 4.53274 74.0587 5.45926 74.5607C6.38826 75.0525 6.5012 76.5517 5.70491 77.2238C5.11305 77.7622 4.27225 77.7825 3.52542 77.7376C3.52625 78.3158 3.52378 78.8948 3.52707 79.4747C3.17674 79.4764 2.82723 79.4764 2.4769 79.4747C2.47855 77.8367 2.47937 76.1978 2.47607 74.5598ZM3.52955 75.2413C3.51718 75.7864 3.52955 76.3324 3.52625 76.8776C3.96561 76.8928 4.46184 76.9665 4.83938 76.6778C5.32408 76.3358 5.2705 75.4275 4.69677 75.2142C4.32254 75.1075 3.88977 75.1185 3.52955 75.2413Z" fill="#58585B"/>
<path d="M15.9009 74.5667C16.8612 74.2603 17.9691 74.0613 18.9014 74.5616C19.8444 75.0695 19.9375 76.6094 19.0976 77.262C18.5107 77.7623 17.7012 77.7835 16.9766 77.7344C16.9544 78.3134 16.9708 78.8941 16.9675 79.4748C16.6131 79.4765 16.2586 79.4765 15.9042 79.474C15.8984 77.8385 15.905 76.2022 15.9009 74.5667ZM16.9601 75.2211C16.9733 75.773 16.9626 76.3249 16.9667 76.8769C17.3888 76.8929 17.8562 76.9624 18.2296 76.7101C18.7291 76.4079 18.734 75.5368 18.2172 75.2515C17.8207 75.0729 17.3723 75.1491 16.9601 75.2211Z" fill="#58585B"/>
<path d="M25.7998 74.5819C26.5491 74.1087 27.5119 74.2035 28.2892 74.5515C28.2851 74.8545 28.2859 75.1576 28.2925 75.4606C27.7147 75.2371 27.0626 75.0069 26.4535 75.2422C26.1345 75.3607 26.0009 75.8796 26.2977 76.0938C26.9398 76.49 27.8326 76.4172 28.3329 77.0588C28.8341 77.8207 28.4582 79.0066 27.6257 79.3368C26.784 79.6788 25.7883 79.5806 25.0225 79.0854C25.0266 78.7662 25.0241 78.4471 25.0258 78.1288C25.6341 78.475 26.3422 78.8077 27.0511 78.6172C27.4377 78.5487 27.6792 77.9959 27.3932 77.6869C26.7873 77.2476 25.9267 77.3407 25.3876 76.7778C24.8213 76.1285 25.0835 74.9993 25.7998 74.5819Z" fill="#58585B"/>
<path d="M71.3795 74.5726C72.1214 74.1096 73.0603 74.2137 73.8343 74.5362C73.8434 74.8409 73.8475 75.1465 73.8475 75.4521C73.3043 75.2515 72.7141 75.0382 72.1354 75.2024C71.856 75.2557 71.6392 75.5596 71.6977 75.8491C71.7554 76.0912 72.0043 76.1793 72.2046 76.2605C72.7693 76.4756 73.4469 76.5246 73.8656 77.0207C74.4138 77.7656 74.0429 78.988 73.207 79.3291C72.3646 79.6821 71.3704 79.578 70.5947 79.0989C70.5923 78.7747 70.5923 78.4513 70.5939 78.1288C71.2014 78.4809 71.9112 78.8051 72.6217 78.6172C73.0149 78.541 73.2672 77.9434 72.9226 77.6598C72.3052 77.2459 71.4413 77.3305 70.922 76.7405C70.3903 76.0794 70.6665 74.9764 71.3795 74.5726Z" fill="#58585B"/>
<path d="M6.85141 74.3549C7.96588 74.3558 9.08117 74.3532 10.1965 74.3558C10.194 74.641 10.194 74.928 10.1956 75.2141C9.43233 75.2167 8.66819 75.2099 7.90488 75.2175C7.90818 75.6171 7.89664 76.0166 7.91312 76.4162C8.49839 76.4162 9.08282 76.4162 9.66808 76.4162C9.67715 76.7023 9.68704 76.9884 9.67386 77.2754C9.08447 77.2627 8.49426 77.2703 7.90488 77.2711C7.90406 77.7206 7.91065 78.171 7.90323 78.6213C8.71106 78.6323 9.51806 78.6222 10.3251 78.6272C10.3267 78.9091 10.3267 79.1927 10.3259 79.4754C9.16773 79.4746 8.00874 79.4771 6.85059 79.4746C6.85388 77.768 6.85223 76.0615 6.85141 74.3549Z" fill="#58585B"/>
<path d="M11.09 74.5691C12.0215 74.2856 13.07 74.0866 13.9899 74.5167C14.7401 74.8434 15.0978 75.8795 14.6898 76.6109C14.5043 76.9791 14.1292 77.1747 13.7797 77.344C14.1639 77.8807 14.501 78.6061 15.2231 78.6976C15.2215 78.9727 15.2215 79.2478 15.2231 79.5246C14.8423 79.5161 14.4252 79.5517 14.0921 79.3231C13.5069 78.9566 13.211 78.2955 12.8252 77.7435C12.6875 77.4862 12.3685 77.5709 12.1344 77.5531C12.1385 78.1939 12.1361 78.8347 12.1361 79.4755C11.7874 79.4755 11.4379 79.4755 11.0892 79.4755C11.09 77.84 11.0875 76.2046 11.09 74.5691ZM12.1377 75.2133C12.1336 75.7204 12.1402 76.2274 12.1336 76.7354C12.5639 76.7481 13.0346 76.8319 13.4253 76.5957C13.8506 76.351 13.9281 75.6391 13.5192 75.3403C13.1153 75.0432 12.5944 75.1769 12.1377 75.2133Z" fill="#58585B"/>
<path d="M20.1558 74.3583C20.5127 74.3524 20.8696 74.3532 21.2265 74.3566C21.2224 75.3352 21.2224 76.3146 21.2257 77.2932C21.229 77.6876 21.276 78.1287 21.5653 78.419C21.9272 78.739 22.5059 78.7364 22.8702 78.4224C23.1653 78.1329 23.2074 77.6851 23.2098 77.2898C23.2189 76.3129 23.2173 75.3369 23.2107 74.36C23.5684 74.3498 23.9262 74.3541 24.2839 74.3575C24.2493 75.4435 24.307 76.5304 24.2633 77.6174C24.2196 78.2853 23.8924 78.9735 23.2873 79.2799C22.4004 79.7463 21.135 79.5973 20.5341 78.7246C20.272 78.3284 20.164 77.8434 20.1632 77.3693C20.1516 76.3654 20.1657 75.3614 20.1558 74.3583Z" fill="#58585B"/>
<path d="M28.8549 74.35C30.2241 74.361 31.5941 74.3517 32.9641 74.3551C32.9625 74.6666 32.9641 74.9789 32.9592 75.2913C32.4514 75.2803 31.9444 75.2964 31.4383 75.2803C31.4251 76.6779 31.4218 78.0772 31.4416 79.4764C31.0855 79.4756 30.7294 79.4756 30.3741 79.4764C30.3947 78.0797 30.3791 76.683 30.3857 75.2871C29.8705 75.2862 29.3553 75.2896 28.8409 75.2854C28.8409 74.973 28.831 74.6606 28.8549 74.35Z" fill="#58585B"/>
<path d="M38.1715 74.3533C38.521 74.355 38.8705 74.355 39.2208 74.355C39.2208 75.0796 39.2175 75.805 39.2217 76.5296C39.8654 75.8253 40.4738 75.0872 41.0896 74.3567C41.4869 74.3541 41.885 74.3516 42.2823 74.3592C41.6526 75.1507 40.9791 75.9041 40.3304 76.6795C40.7755 77.2102 41.1324 77.8146 41.6097 78.3166C41.7952 78.5249 42.0721 78.5909 42.3293 78.6518C42.3417 78.943 42.3392 79.2351 42.3384 79.5271C41.8677 79.5237 41.355 79.4653 40.9906 79.1284C40.4144 78.6163 40.0353 77.9238 39.5605 77.3211C39.4467 77.4193 39.3329 77.5184 39.22 77.6191C39.22 78.237 39.2184 78.8558 39.2217 79.4746C38.8689 79.4763 38.5169 79.4763 38.1641 79.4738C38.1871 77.7672 38.1649 76.0607 38.1715 74.3533Z" fill="#58585B"/>
<path d="M44.5996 74.3939C44.9837 74.3406 45.3752 74.3364 45.7594 74.3965C46.7922 75.8651 47.4838 77.6665 47.3429 79.5009C46.9876 79.506 46.6331 79.4839 46.2787 79.4653C46.2812 79.0641 46.2845 78.662 46.2713 78.2616C45.5393 78.2438 44.8056 78.2387 44.0736 78.2641C44.0819 78.6662 44.0621 79.0683 44.0687 79.4713C43.7167 79.4839 43.3664 79.5068 43.0144 79.5009C42.8685 77.6657 43.565 75.8609 44.5996 74.3939ZM44.2319 77.41C44.8625 77.421 45.4923 77.4159 46.1229 77.4134C45.9003 76.6448 45.6052 75.8905 45.1716 75.221C44.7595 75.9007 44.4504 76.6422 44.2319 77.41Z" fill="#58585B"/>
<path d="M49.4902 74.531C49.6353 74.2813 49.9634 74.3812 50.1983 74.3524C50.4102 74.3778 50.7061 74.2965 50.833 74.5276C51.8173 75.9642 52.4635 77.7182 52.3275 79.495C51.9714 79.5128 51.617 79.4797 51.2617 79.4687C51.2625 79.065 51.2625 78.6612 51.2576 78.2582C50.5272 78.2438 49.7977 78.2438 49.0682 78.2582C49.0665 78.6629 49.0583 79.0683 49.0575 79.4738C48.7055 79.4781 48.3543 79.5077 48.0024 79.5018C47.8606 77.7232 48.5077 75.9693 49.4902 74.531ZM49.2215 77.4143C49.8496 77.4159 50.4769 77.4168 51.1051 77.4143C50.9006 76.6448 50.5767 75.9142 50.181 75.2294C49.7227 75.8795 49.4441 76.6499 49.2215 77.4143Z" fill="#58585B"/>
<path d="M52.8818 74.36C53.1877 74.3507 53.4943 74.3541 53.8009 74.3575C54.6096 75.331 55.4067 76.3138 56.2104 77.2915C56.1626 76.3172 56.1758 75.342 56.1708 74.3668C56.4989 74.3532 56.8287 74.3465 57.1576 74.3642C57.1411 76.0767 57.1584 77.7901 57.1485 79.5034C56.8987 79.4865 56.649 79.4738 56.3992 79.4653C56.1222 78.596 55.4595 77.9619 54.9129 77.2712C54.5634 76.8428 54.2139 76.4145 53.8455 76.0039C53.8809 77.1594 53.8685 78.3158 53.8743 79.4721C53.5462 79.4772 53.2182 79.4789 52.8909 79.4704C52.8942 77.7672 52.8835 76.064 52.8818 74.36Z" fill="#58585B"/>
<path d="M60.6636 74.3516C60.9735 74.3558 61.2843 74.349 61.5951 74.366C62.3806 75.353 63.1909 76.3197 63.9889 77.2974C63.9254 76.3214 63.9477 75.3437 63.9427 74.3668C64.2691 74.3516 64.5964 74.3524 64.9237 74.3558C64.922 76.0666 64.9195 77.7774 64.9245 79.4882C64.6714 79.4925 64.4192 79.4764 64.1678 79.4637C63.8941 78.5858 63.2173 77.9535 62.6716 77.2543C62.3221 76.831 61.9817 76.3984 61.6041 76.0023C61.6651 77.1586 61.6313 78.3175 61.642 79.4747C61.3164 79.4764 60.9917 79.4772 60.6669 79.473C60.6454 77.7664 60.652 76.059 60.6636 74.3516Z" fill="#58585B"/>
<path d="M67.1039 74.3957C67.4559 74.3466 67.8145 74.3322 68.1681 74.3822C68.239 74.3889 68.2926 74.4253 68.3297 74.4914C69.3329 75.9364 69.9824 77.7056 69.8538 79.4993C69.4985 79.5086 69.1449 79.4798 68.7905 79.4705C68.7987 79.0668 68.7839 78.6638 68.7839 78.2609C68.0519 78.2448 67.3191 78.2389 66.5863 78.2634C66.5821 78.6655 66.5772 79.0684 66.5821 79.4714C66.226 79.4815 65.8699 79.5095 65.5138 79.4985C65.3861 77.6641 66.0711 75.8644 67.1039 74.3957ZM66.7379 77.4034C67.3685 77.4296 67.9991 77.411 68.6305 77.4135C68.4179 76.6635 68.1211 75.9347 67.7197 75.2702L67.6702 75.2532C67.2482 75.9101 66.9663 76.6542 66.7379 77.4034Z" fill="#58585B"/>
<path d="M74.8276 74.3617C75.1821 74.3482 75.5365 74.3558 75.8918 74.3558C75.8877 76.0615 75.8885 77.7681 75.891 79.4747C75.5373 79.4763 75.1846 79.4763 74.8318 79.4747C74.8285 77.7706 74.8367 76.0657 74.8276 74.3617Z" fill="#58585B"/>
<path d="M78.1801 74.3702C79.0151 74.1476 79.9944 74.2703 80.6456 74.8908C81.5928 75.8643 81.643 77.5472 80.874 78.6476C80.489 79.2241 79.7974 79.5068 79.1371 79.5492C78.4035 79.5974 77.6014 79.368 77.1184 78.7695C76.332 77.7715 76.2784 76.2342 77.0055 75.1871C77.2833 74.7791 77.716 74.5006 78.1801 74.3702ZM78.5107 75.2277C78.0334 75.3776 77.7185 75.8533 77.6427 76.3434C77.5338 76.9758 77.5643 77.6987 77.9732 78.2193C78.4604 78.8195 79.4677 78.8085 79.945 78.2015C80.3093 77.7012 80.3728 77.0325 80.2722 76.4323C80.2219 75.9955 80.0018 75.5655 79.6276 75.3361C79.2929 75.1389 78.8742 75.094 78.5107 75.2277Z" fill="#58585B"/>
<path d="M82.0845 74.3659C82.3952 74.36 82.7134 74.3228 83.0209 74.3803C83.8238 75.3513 84.6209 76.3282 85.4188 77.3033C85.3504 76.3282 85.3751 75.3496 85.3727 74.3727C85.6975 74.3465 86.0231 74.3541 86.3495 74.3558C86.352 76.0649 86.3553 77.7732 86.352 79.4823C86.0997 79.495 85.8475 79.4755 85.5969 79.4645C85.4007 78.8736 85.0413 78.3606 84.6341 77.9052C84.0999 77.2678 83.593 76.6075 83.0316 75.9955C83.0951 77.1535 83.0596 78.3141 83.072 79.4738C82.7439 79.4772 82.4167 79.4772 82.0902 79.473C82.0869 77.7706 82.0977 76.0683 82.0845 74.3659Z" fill="#58585B"/>
<path d="M88.4112 74.7071C88.5102 74.5717 88.586 74.3609 88.7838 74.3719C89.116 74.3685 89.4985 74.2864 89.8027 74.4396C90.8388 75.8863 91.4983 77.6851 91.3705 79.5C91.0144 79.5077 90.66 79.4814 90.3055 79.4687C90.3162 79.0658 90.3006 78.6629 90.3006 78.2608C89.5669 78.2455 88.8333 78.2354 88.1005 78.2658C88.1005 78.6671 88.0931 79.0692 88.0988 79.4713C87.7427 79.4814 87.3866 79.5094 87.0297 79.4984C86.9118 77.7935 87.4971 76.1098 88.4112 74.7071ZM88.2653 77.4185C88.8926 77.4109 89.5191 77.4193 90.1472 77.4134C89.9197 76.6482 89.6395 75.8829 89.1886 75.2252C88.7929 75.9117 88.4566 76.6422 88.2653 77.4185Z" fill="#58585B"/>
<path d="M92.3335 74.3635C92.6929 74.3677 93.0523 74.3508 93.4125 74.3762C93.3466 75.7729 93.3845 77.1739 93.4043 78.5724C94.1099 78.5876 94.8171 78.5842 95.5236 78.5741C95.5236 78.8822 95.5327 79.1903 95.5294 79.4993C94.466 79.4985 93.4018 79.4985 92.3393 79.4993C92.3285 77.7876 92.3384 76.0751 92.3335 74.3635Z" fill="#58585B"/>
<path d="M34.6315 74.3948C35.009 74.3483 35.3981 74.3229 35.774 74.4007C36.8439 75.8423 37.5042 77.6708 37.3789 79.5001C37.0236 79.5086 36.6692 79.4789 36.3139 79.4713C36.318 79.0675 36.3164 78.6629 36.3057 78.26C35.5729 78.2473 34.84 78.2337 34.1081 78.2667C34.113 78.668 34.0957 79.0692 34.1039 79.4713C33.7495 79.4832 33.3958 79.5086 33.0414 79.4984C32.9128 77.664 33.5962 75.8627 34.6315 74.3948ZM35.0651 75.4555C34.7337 76.0768 34.4394 76.7278 34.2803 77.4194C34.9052 77.4092 35.5308 77.4219 36.1565 77.4126C35.9446 76.6558 35.6404 75.9253 35.2382 75.254C35.1384 75.2684 35.1145 75.3827 35.0651 75.4555Z" fill="#58585B"/>
<path opacity="0.77" d="M21.5336 83.6539C22.203 83.4017 22.9918 83.2899 23.648 83.6395C24.197 83.9273 24.3602 84.7501 23.9835 85.2462C23.8029 85.4934 23.521 85.6254 23.2416 85.716C23.5054 86.0775 23.7164 86.4872 24.0453 86.7945C24.1722 86.9121 24.361 86.9045 24.497 87.0044C24.5028 87.1441 24.5044 87.2846 24.502 87.4268C24.2275 87.4277 23.92 87.4294 23.6983 87.2372C23.2482 86.8588 23.01 86.2984 22.6547 85.8388C22.4676 85.8176 22.2796 85.7998 22.0925 85.788C22.0958 86.3238 22.0933 86.8596 22.0941 87.3963C21.9029 87.4031 21.7117 87.4031 21.5212 87.3963C21.5114 86.1494 21.4866 84.9008 21.5336 83.6539ZM22.0925 83.9866C22.0958 84.4327 22.0933 84.8788 22.0941 85.3249C22.5079 85.3503 22.9679 85.4104 23.3323 85.1599C23.6958 84.922 23.7098 84.2829 23.329 84.0543C22.9555 83.8198 22.4972 83.907 22.0925 83.9866Z" fill="#6C6C6D"/>
<path opacity="0.77" d="M25.0658 83.4728C25.8868 83.4702 26.7078 83.4778 27.5297 83.4719C27.5313 83.6336 27.5297 83.797 27.5239 83.9604C26.8966 83.9434 26.2693 83.9417 25.642 83.9629C25.6453 84.3591 25.6445 84.7561 25.6437 85.1531C26.1374 85.1353 26.632 85.137 27.1258 85.1565C27.1258 85.3038 27.1258 85.4528 27.1266 85.6026C26.6345 85.6263 26.1415 85.6144 25.6494 85.6119C25.6379 86.0462 25.6469 86.4813 25.6437 86.9164C26.3047 86.9138 26.9658 86.9223 27.6269 86.9105C27.6269 87.073 27.6269 87.2355 27.6269 87.3997C26.7705 87.4014 25.9148 87.4091 25.0592 87.3955C25.065 86.0877 25.0518 84.7798 25.0658 83.4728Z" fill="#6C6C6D"/>
<path opacity="0.77" d="M28.2998 83.6522C28.918 83.4016 29.6278 83.328 30.2642 83.5472C31.0266 83.824 31.2187 84.9947 30.6244 85.5416C30.1611 85.9987 29.4703 86.0444 28.8636 85.986C28.8991 86.4558 28.8818 86.9282 28.8834 87.3997C28.6938 87.4005 28.5051 87.4031 28.3171 87.4098C28.2825 86.1578 28.3163 84.9042 28.2998 83.6522ZM28.8809 83.9832C28.8867 84.4851 28.8859 84.9871 28.8818 85.4899C29.3013 85.5399 29.7836 85.5737 30.1339 85.2817C30.4884 84.977 30.4991 84.3141 30.1009 84.0424C29.7341 83.813 29.2766 83.8883 28.8809 83.9832Z" fill="#6C6C6D"/>
<path opacity="0.77" d="M31.479 83.4736C31.6702 83.4626 31.8623 83.4626 32.0552 83.4711C32.1088 84.3464 32.0099 85.2242 32.0824 86.0978C32.117 86.5346 32.4443 86.946 32.8919 86.9604C33.4021 87.0374 33.8605 86.6032 33.8819 86.0868C33.9305 85.2217 33.8893 84.3531 33.9033 83.4872C34.0954 83.4728 34.2875 83.4635 34.4803 83.4592C34.4845 84.31 34.4952 85.1607 34.4688 86.0106C34.4474 86.6049 34.0731 87.2211 33.4912 87.3752C32.9694 87.509 32.3462 87.4624 31.9414 87.062C31.6233 86.7462 31.4971 86.2798 31.4872 85.8371C31.4666 85.049 31.4955 84.2617 31.479 83.4736Z" fill="#6C6C6D"/>
<path opacity="0.77" d="M35.3358 83.6335C35.9425 83.427 36.6053 83.3432 37.2326 83.5015C37.7057 83.6268 38.0569 84.1643 37.9151 84.6612C37.8376 84.9744 37.5705 85.1801 37.3043 85.3198C37.545 85.4374 37.8079 85.556 37.958 85.7964C38.1451 86.1121 38.0849 86.5244 37.8978 86.8266C37.7074 87.1372 37.3636 87.3065 37.0265 87.3903C36.4602 87.5241 35.8741 87.3954 35.3325 87.216C35.3358 86.0215 35.33 84.8271 35.3358 83.6335ZM35.8881 83.9848C35.8963 84.3666 35.8906 84.7492 35.8931 85.1318C36.2063 85.1564 36.5253 85.1666 36.8361 85.1065C37.0735 85.054 37.3166 84.8957 37.3768 84.6392C37.4535 84.3818 37.3348 84.0788 37.0891 83.973C36.7091 83.8045 36.2714 83.8536 35.8881 83.9848ZM35.8914 85.6076C35.8939 86.0334 35.8914 86.4592 35.8931 86.8858C36.3093 86.9645 36.7726 87.067 37.165 86.846C37.5227 86.6581 37.6324 86.0833 37.3109 85.8099C36.8946 85.5179 36.3646 85.6228 35.8914 85.6076Z" fill="#6C6C6D"/>
<path opacity="0.77" d="M38.7237 83.4804C38.9158 83.4685 39.1095 83.466 39.3032 83.4745C39.2892 84.6173 39.2908 85.7609 39.3057 86.9037C39.8876 86.9121 40.4696 86.9011 41.0515 86.9096C41.0507 87.0713 41.0507 87.2338 41.0515 87.398C40.2751 87.4065 39.4986 87.4023 38.7221 87.4006C38.7212 86.0936 38.7188 84.7866 38.7237 83.4804Z" fill="#6C6C6D"/>
<path opacity="0.77" d="M41.6542 83.4871C41.8438 83.4693 42.0342 83.4626 42.2246 83.4651C42.209 84.7764 42.2147 86.0885 42.2139 87.4005C42.0243 87.4048 41.8364 87.4014 41.6484 87.3895C41.6625 86.0885 41.6509 84.7882 41.6542 83.4871Z" fill="#6C6C6D"/>
<path opacity="0.77" d="M43.2123 83.487C43.4052 83.471 43.5981 83.4642 43.7927 83.465C43.7943 84.0635 43.7968 84.662 43.7902 85.2613C44.3672 84.6916 44.8948 84.072 45.4504 83.4803C45.6729 83.4684 45.8963 83.4625 46.1205 83.4718C45.5938 84.0898 45.0267 84.6705 44.4991 85.2876C44.8643 85.7218 45.1866 86.1933 45.5641 86.6175C45.7232 86.802 45.954 86.8875 46.1815 86.9467C46.1848 87.1067 46.1881 87.2659 46.1906 87.4284C45.8147 87.4411 45.4306 87.3048 45.1759 87.0145C44.786 86.5768 44.4472 86.0952 44.0861 85.6338C43.9864 85.7075 43.8883 85.7836 43.7902 85.8598C43.7976 86.3728 43.7935 86.8866 43.7927 87.4005C43.6055 87.4005 43.4192 87.403 43.233 87.4056C43.1843 86.1011 43.2239 84.7932 43.2123 83.487Z" fill="#6C6C6D"/>
<path opacity="0.77" d="M48.0525 83.4838C48.2412 83.4677 48.4317 83.4643 48.6221 83.4719C48.6105 84.7798 48.6163 86.0876 48.6188 87.3955C48.4292 87.4014 48.2396 87.4022 48.0508 87.3989C48.0376 86.0935 48.036 84.7891 48.0525 83.4838Z" fill="#6C6C6D"/>
<path opacity="0.77" d="M49.612 83.4702C49.8173 83.4838 50.0975 83.3771 50.2212 83.6065C50.8856 84.4666 51.5961 85.2902 52.2292 86.1757C52.1369 85.2767 52.1896 84.3701 52.1806 83.4685C52.3553 83.4643 52.5301 83.4618 52.7065 83.4618C52.7197 84.7722 52.7131 86.0834 52.7098 87.3947C52.5771 87.4006 52.4443 87.4074 52.3133 87.4158C52.1163 86.72 51.5895 86.2189 51.17 85.6644C50.8221 85.2327 50.4907 84.7866 50.119 84.3752C50.142 85.3834 50.128 86.3916 50.1288 87.3998C49.9557 87.4006 49.7835 87.4006 49.6112 87.3998C49.6104 86.0902 49.6095 84.7798 49.612 83.4702Z" fill="#6C6C6D"/>
<path opacity="0.77" d="M53.636 83.6353C54.222 83.4118 54.8634 83.3771 55.4783 83.4703C56.1583 83.5947 56.704 84.2042 56.8005 84.9034C56.9563 85.6966 56.7716 86.6574 56.0726 87.1255C55.339 87.5902 54.4141 87.481 53.6318 87.2135C53.636 86.0208 53.6277 84.8281 53.636 83.6353ZM54.2163 83.9722C54.2097 84.9398 54.2196 85.9074 54.2113 86.8749C54.7372 86.9926 55.3621 87.0408 55.8031 86.6624C56.2325 86.2739 56.3067 85.6322 56.2375 85.0803C56.1897 84.6596 55.9704 84.2414 55.597 84.0416C55.1683 83.8224 54.6688 83.8707 54.2163 83.9722Z" fill="#6C6C6D"/>
<path opacity="0.77" d="M58.4004 83.5201C58.9106 83.377 59.4835 83.3618 59.9707 83.5997C60.4488 83.8409 60.7645 84.337 60.8717 84.8635C61.011 85.5695 60.898 86.3754 60.4043 86.9172C59.6855 87.6697 58.3336 87.6121 57.6766 86.802C57.2488 86.2323 57.1779 85.451 57.3345 84.7679C57.4574 84.2032 57.8646 83.7097 58.4004 83.5201ZM58.7359 83.9467C58.3072 84.0568 57.994 84.4555 57.9091 84.8906C57.8077 85.4222 57.8242 86.0232 58.1415 86.4795C58.5891 87.122 59.6748 87.1025 60.0844 86.4253C60.4133 85.8573 60.4166 85.1115 60.1463 84.5181C59.9006 83.9942 59.2585 83.7851 58.7359 83.9467Z" fill="#6C6C6D"/>
<path opacity="0.77" d="M61.6019 83.4778C61.7618 83.4677 61.9218 83.4609 62.0825 83.4575C62.5293 83.9849 62.948 84.5377 63.3816 85.0769C63.6594 85.435 63.9652 85.7719 64.201 86.163C64.1721 85.2623 64.1515 84.3607 64.1763 83.4601C64.3518 83.4609 64.5291 83.4668 64.7063 83.4736C64.7112 84.7789 64.703 86.0842 64.7121 87.3896C64.5769 87.3972 64.4417 87.4048 64.3081 87.4133C64.1194 86.7581 63.6372 86.2705 63.2324 85.7524C62.8582 85.2843 62.493 84.8094 62.1072 84.3523C62.1377 85.3706 62.1418 86.3907 62.113 87.409C61.9465 87.4039 61.78 87.4031 61.6151 87.4056C61.5863 86.0969 61.6126 84.7874 61.6019 83.4778Z" fill="#6C6C6D"/>
<path opacity="0.77" d="M65.6284 83.4728C66.4469 83.4702 67.2671 83.4787 68.0865 83.4719C68.089 83.6336 68.0873 83.7961 68.0815 83.9595C67.4567 83.946 66.831 83.9392 66.2062 83.9646C66.1963 84.3591 66.1947 84.7552 66.2046 85.1506C66.6975 85.137 67.1913 85.137 67.6842 85.1565C67.6842 85.3038 67.685 85.4511 67.6867 85.6001C67.1896 85.6322 66.6917 85.606 66.1947 85.6187C66.2013 86.0512 66.1938 86.4838 66.2087 86.9164C66.8673 86.913 67.5259 86.924 68.1846 86.9096C68.1813 87.0713 68.1796 87.2338 68.1788 87.398C67.3256 87.4023 66.4725 87.4099 65.6201 87.3938C65.63 86.0868 65.6152 84.7798 65.6284 83.4728Z" fill="#6C6C6D"/>
<path opacity="0.77" d="M69.2515 83.6226C69.817 83.3085 70.5102 83.3813 71.0815 83.6395C71.0881 83.8156 71.0955 83.9917 71.0996 84.1694C70.6355 83.9485 70.0783 83.7682 69.5895 84.0137C69.2779 84.1381 69.1353 84.6519 69.4444 84.8602C69.967 85.1954 70.6874 85.115 71.126 85.6068C71.5472 86.1469 71.234 87.0188 70.6413 87.2736C69.9967 87.5707 69.2383 87.4539 68.6423 87.0924C68.6341 86.9028 68.6308 86.7141 68.6341 86.5261C69.1501 86.8436 69.8021 87.1178 70.3907 86.8368C70.7262 86.6946 70.9084 86.135 70.5712 85.8989C70.0684 85.578 69.3883 85.6542 68.9473 85.2132C68.4939 84.7561 68.7248 83.9121 69.2515 83.6226Z" fill="#6C6C6D"/>
<path opacity="0.77" d="M71.9516 83.4829C72.1404 83.4686 72.3308 83.4643 72.5213 83.4702C72.5336 84.7773 72.5163 86.0843 72.5303 87.3913C72.3366 87.4014 72.1437 87.4048 71.9516 87.4006C71.95 86.0944 71.9508 84.7883 71.9516 83.4829Z" fill="#6C6C6D"/>
<path opacity="0.77" d="M73.5841 85.4765C73.819 84.7544 74.204 84.0975 74.6029 83.4609C74.8189 83.4677 75.0357 83.4745 75.2533 83.4779C75.7191 84.2109 76.1551 84.9855 76.3637 85.8422C76.4882 86.3492 76.5088 86.8766 76.4972 87.3981C76.3043 87.4006 76.1123 87.4006 75.921 87.3989C75.9152 87.0493 75.9161 86.6997 75.9012 86.3501C75.2517 86.3442 74.6013 86.3475 73.9517 86.3484C73.9344 86.6972 73.9146 87.0468 73.9286 87.3972C73.7341 87.4023 73.5404 87.4014 73.3475 87.3972C73.3326 86.7496 73.373 86.0919 73.5841 85.4765ZM74.0424 85.8786C74.6293 85.8633 75.2162 85.8659 75.8031 85.8777C75.607 85.1937 75.3209 84.5352 74.9195 83.9528C74.5271 84.5402 74.241 85.198 74.0424 85.8786Z" fill="#6C6C6D"/>
</svg>
